[img]http://img32.imageshack.us/img32/7236/thematrix1999p.jpg[/img]

[b][size=200][color=black]PLOT[/color][/size][/b]

[code]A computer hacker learns from mysterious rebels about 
the true nature of his reality and his role in the war against
its controllers.[/code]

[b][size=200][color=black]IMDB[/color][/size][/b]

[code]http://www.imdb.com/title/tt0133093/[/code]

[b][size=200][color=black]MOVIE INFO[/color][/size][/b]

[code]The Matrix [1999] BRRip x264 AAC-V3nom

Format                                   : MPEG-4
Format profile                           : Base Media / Version 2
Codec ID                                 : mp42
File size                                : 351 MiB
Duration                                 : 2h 16mn
Overall bit rate mode                    : Variable
Overall bit rate                         : 360 Kbps
Encoded date                             : UTC 2012-12-31 11:31:37
Tagged date                              : UTC 2012-12-31 12:21:37

Video
ID                                       : 1
Format                                   : AVC
Format/Info                              : Advanced Video Codec
Format profile                           : Main@L2.1
Format settings, CABAC                   : Yes
Format settings, ReFrames                : 4 frames
Codec ID                                 : avc1
Codec ID/Info                            : Advanced Video Coding
Duration                                 : 2h 16mn
Bit rate mode                            : Variable
Bit rate                                 : 227 Kbps
Width                                    : 640 pixels
Height                                   : 272 pixels
Display aspect ratio                     : 2.40:1
Original display aspect ratio            : 2.40:1
Frame rate mode                          : Variable
Frame rate                               : 23.976 fps
Minimum frame rate                       : 5.994 fps
Maximum frame rate                       : 23.981 fps
Color space                              : YUV
Chroma subsampling                       : 4:2:0
Bit depth                                : 8 bits
Scan type                                : Progressive
Bits/(Pixel*Frame)                       : 0.054
Stream size                              : 221 MiB (63%)
Writing library                          : x264 core 112

Audio
ID                                       : 2
Format                                   : AAC
Format/Info                              : Advanced Audio Codec
Format profile                           : LC
Codec ID                                 : 40
Duration                                 : 2h 16mn
Bit rate mode                            : Variable
Bit rate                                 : 128 Kbps
Maximum bit rate                         : 246 Kbps
Channel(s)                               : 2 channels
Channel positions                        : Front: L R
Sampling rate                            : 48.0 KHz
Compression mode                         : Lossy
Delay relative to video                  : 209ms
Stream size                              : 125 MiB (36%)
Encoded date                             : UTC 2012-12-31 11:31:37
Tagged date                              : UTC 2012-12-31 12:21:30[/code]

[b][size=200][color=black]SOURCE[/color][/size][/b]

[code]The Matrix (1999) 720p BrRip x264 - 700mb - YIFY(Thanks)[/code]

[b][size=200][color=black]SCREENSHOTS[/color][/size][/b]

[img]http://img571.imageshack.us/img571/4875/thematrix1999brripx264a.jpg[/img]

[img]http://kastatic.com/i2/users/133df62bbf28e62494bb17fe11078f1a.gif[/img][img]http://kastatic.com/i2/users/133df62bbf28e62494bb17fe11078f1a.gif[/img]